<svg width="612" height="100" viewBox="0 0 612 100" fill="none" xmlns="http://www.w3.org/2000/svg">
<path d="M75.3604 34.4512L80.0967 35.6475C79.1038 39.5374 77.3135 42.5078 74.7256 44.5586C72.154 46.5931 69.0046 47.6104 65.2773 47.6104C61.4199 47.6104 58.2786 46.8291 55.8535 45.2666C53.4447 43.6878 51.6055 41.4092 50.3359 38.4307C49.0827 35.4521 48.4561 32.2539 48.4561 28.8359C48.4561 25.1087 49.1641 21.8617 50.5801 19.0947C52.0124 16.3115 54.0387 14.2038 56.6592 12.7715C59.2959 11.3229 62.193 10.5986 65.3506 10.5986C68.9313 10.5986 71.9424 11.5101 74.3838 13.333C76.8252 15.1559 78.526 17.7194 79.4863 21.0234L74.8232 22.1221C73.9932 19.5179 72.7887 17.6217 71.21 16.4336C69.6312 15.2454 67.6455 14.6514 65.2529 14.6514C62.5023 14.6514 60.1992 15.3105 58.3438 16.6289C56.5046 17.9473 55.2106 19.7214 54.4619 21.9512C53.7132 24.1647 53.3389 26.4515 53.3389 28.8115C53.3389 31.8551 53.7783 34.5163 54.6572 36.7949C55.5524 39.0573 56.9359 40.75 58.8076 41.873C60.6794 42.9961 62.7057 43.5576 64.8867 43.5576C67.5397 43.5576 69.7858 42.7926 71.625 41.2627C73.4642 39.7327 74.7093 37.4622 75.3604 34.4512ZM85.3457 47V21.0723H89.3008V25.0029C90.3099 23.1637 91.2376 21.9512 92.084 21.3652C92.9466 20.7793 93.8906 20.4863 94.916 20.4863C96.3971 20.4863 97.9027 20.9583 99.4326 21.9023L97.9189 25.9795C96.8447 25.3447 95.7705 25.0273 94.6963 25.0273C93.736 25.0273 92.8734 25.3203 92.1084 25.9062C91.3434 26.4759 90.7982 27.2734 90.4727 28.2988C89.9844 29.8613 89.7402 31.5703 89.7402 33.4258V47H85.3457ZM118.964 43.8018C117.336 45.1852 115.766 46.1618 114.252 46.7314C112.755 47.3011 111.143 47.5859 109.418 47.5859C106.57 47.5859 104.381 46.8942 102.851 45.5107C101.321 44.111 100.556 42.3288 100.556 40.1641C100.556 38.8945 100.84 37.7389 101.41 36.6973C101.996 35.6393 102.753 34.793 103.681 34.1582C104.625 33.5234 105.683 33.0433 106.854 32.7178C107.717 32.4899 109.019 32.2702 110.761 32.0586C114.309 31.6354 116.921 31.1309 118.598 30.5449C118.614 29.9427 118.622 29.5602 118.622 29.3975C118.622 27.6071 118.207 26.3457 117.377 25.6133C116.254 24.6204 114.586 24.124 112.372 24.124C110.305 24.124 108.775 24.4902 107.782 25.2227C106.806 25.9388 106.081 27.2165 105.609 29.0557L101.312 28.4697C101.703 26.6305 102.346 25.1494 103.241 24.0264C104.136 22.887 105.43 22.0163 107.123 21.4141C108.816 20.7956 110.777 20.4863 113.007 20.4863C115.22 20.4863 117.019 20.7467 118.402 21.2676C119.786 21.7884 120.803 22.4476 121.454 23.2451C122.105 24.0264 122.561 25.0192 122.821 26.2236C122.968 26.9723 123.041 28.3232 123.041 30.2764V36.1357C123.041 40.221 123.131 42.8089 123.31 43.8994C123.505 44.9736 123.879 46.0072 124.433 47H119.843C119.387 46.0885 119.094 45.0225 118.964 43.8018ZM118.598 33.9873C117.003 34.6383 114.61 35.1917 111.42 35.6475C109.613 35.9079 108.336 36.2008 107.587 36.5264C106.838 36.8519 106.26 37.332 105.854 37.9668C105.447 38.5853 105.243 39.277 105.243 40.042C105.243 41.2139 105.683 42.1904 106.562 42.9717C107.457 43.7529 108.759 44.1436 110.468 44.1436C112.16 44.1436 113.666 43.7773 114.984 43.0449C116.303 42.2962 117.271 41.279 117.89 39.9932C118.362 39.0003 118.598 37.5355 118.598 35.5986V33.9873ZM129.877 47V21.0723H133.832V24.7588C135.736 21.9105 138.487 20.4863 142.084 20.4863C143.646 20.4863 145.079 20.7712 146.381 21.3408C147.699 21.8942 148.684 22.6266 149.335 23.5381C149.986 24.4495 150.442 25.5319 150.702 26.7852C150.865 27.599 150.946 29.0231 150.946 31.0576V47H146.552V31.2285C146.552 29.4382 146.381 28.1035 146.039 27.2246C145.697 26.3294 145.087 25.6214 144.208 25.1006C143.345 24.5635 142.328 24.2949 141.156 24.2949C139.285 24.2949 137.665 24.889 136.298 26.0771C134.947 27.2653 134.271 29.5195 134.271 32.8398V47H129.877ZM174.628 43.8018C173 45.1852 171.43 46.1618 169.916 46.7314C168.419 47.3011 166.807 47.5859 165.082 47.5859C162.234 47.5859 160.045 46.8942 158.515 45.5107C156.985 44.111 156.22 42.3288 156.22 40.1641C156.22 38.8945 156.505 37.7389 157.074 36.6973C157.66 35.6393 158.417 34.793 159.345 34.1582C160.289 33.5234 161.347 33.0433 162.519 32.7178C163.381 32.4899 164.683 32.2702 166.425 32.0586C169.973 31.6354 172.585 31.1309 174.262 30.5449C174.278 29.9427 174.286 29.5602 174.286 29.3975C174.286 27.6071 173.871 26.3457 173.041 25.6133C171.918 24.6204 170.25 24.124 168.036 24.124C165.969 24.124 164.439 24.4902 163.446 25.2227C162.47 25.9388 161.745 27.2165 161.273 29.0557L156.977 28.4697C157.367 26.6305 158.01 25.1494 158.905 24.0264C159.8 22.887 161.094 22.0163 162.787 21.4141C164.48 20.7956 166.441 20.4863 168.671 20.4863C170.884 20.4863 172.683 20.7467 174.066 21.2676C175.45 21.7884 176.467 22.4476 177.118 23.2451C177.769 24.0264 178.225 25.0192 178.485 26.2236C178.632 26.9723 178.705 28.3232 178.705 30.2764V36.1357C178.705 40.221 178.795 42.8089 178.974 43.8994C179.169 44.9736 179.543 46.0072 180.097 47H175.507C175.051 46.0885 174.758 45.0225 174.628 43.8018ZM174.262 33.9873C172.667 34.6383 170.274 35.1917 167.084 35.6475C165.277 35.9079 164 36.2008 163.251 36.5264C162.502 36.8519 161.924 37.332 161.518 37.9668C161.111 38.5853 160.907 39.277 160.907 40.042C160.907 41.2139 161.347 42.1904 162.226 42.9717C163.121 43.7529 164.423 44.1436 166.132 44.1436C167.825 44.1436 169.33 43.7773 170.648 43.0449C171.967 42.2962 172.935 41.279 173.554 39.9932C174.026 39.0003 174.262 37.5355 174.262 35.5986V33.9873ZM202.46 37.5029L206.781 38.0645C206.309 41.043 205.097 43.3786 203.144 45.0713C201.207 46.7477 198.822 47.5859 195.99 47.5859C192.442 47.5859 189.586 46.4303 187.421 44.1191C185.272 41.7917 184.198 38.4632 184.198 34.1338C184.198 31.3343 184.662 28.8848 185.59 26.7852C186.518 24.6855 187.925 23.1149 189.813 22.0732C191.718 21.0153 193.785 20.4863 196.015 20.4863C198.83 20.4863 201.133 21.2025 202.924 22.6348C204.714 24.0508 205.862 26.069 206.366 28.6895L202.094 29.3486C201.687 27.6071 200.963 26.2969 199.921 25.418C198.896 24.5391 197.65 24.0996 196.186 24.0996C193.972 24.0996 192.174 24.8971 190.79 26.4922C189.407 28.071 188.715 30.5775 188.715 34.0117C188.715 37.4948 189.382 40.0257 190.717 41.6045C192.051 43.1833 193.793 43.9727 195.941 43.9727C197.667 43.9727 199.107 43.4437 200.263 42.3857C201.418 41.3278 202.151 39.7002 202.46 37.5029ZM210.541 47V11.209H214.936V24.0508C216.986 21.6745 219.574 20.4863 222.699 20.4863C224.62 20.4863 226.288 20.8688 227.704 21.6338C229.12 22.3825 230.129 23.4242 230.731 24.7588C231.35 26.0934 231.659 28.0303 231.659 30.5693V47H227.265V30.5693C227.265 28.3721 226.785 26.777 225.824 25.7842C224.88 24.7751 223.537 24.2705 221.796 24.2705C220.494 24.2705 219.265 24.6123 218.109 25.2959C216.97 25.9632 216.156 26.8747 215.668 28.0303C215.18 29.1859 214.936 30.7809 214.936 32.8154V47H210.541ZM252.851 47V11.209H265.18C267.963 11.209 270.087 11.3799 271.552 11.7217C273.603 12.1937 275.352 13.0482 276.801 14.2852C278.689 15.8802 280.097 17.9229 281.024 20.4131C281.968 22.887 282.44 25.7191 282.44 28.9092C282.44 31.6273 282.123 34.0361 281.488 36.1357C280.854 38.2354 280.04 39.9769 279.047 41.3604C278.054 42.7275 276.964 43.8099 275.775 44.6074C274.604 45.3887 273.179 45.9827 271.503 46.3896C269.843 46.7965 267.93 47 265.766 47H252.851ZM257.587 42.7764H265.229C267.589 42.7764 269.436 42.5566 270.771 42.1172C272.121 41.6777 273.196 41.0592 273.993 40.2617C275.116 39.1387 275.987 37.6331 276.605 35.7451C277.24 33.8408 277.558 31.5378 277.558 28.8359C277.558 25.0924 276.939 22.2197 275.702 20.2178C274.481 18.1995 272.992 16.8486 271.234 16.165C269.965 15.6768 267.922 15.4326 265.106 15.4326H257.587V42.7764ZM288.446 16.2627V11.209H292.841V16.2627H288.446ZM288.446 47V21.0723H292.841V47H288.446ZM298.749 49.1484L303.021 49.7832C303.201 51.1016 303.697 52.0618 304.511 52.6641C305.601 53.4779 307.09 53.8848 308.979 53.8848C311.013 53.8848 312.584 53.4779 313.69 52.6641C314.797 51.8503 315.546 50.7109 315.937 49.2461C316.164 48.3509 316.27 46.471 316.254 43.6064C314.333 45.8688 311.941 47 309.076 47C305.512 47 302.753 45.7142 300.8 43.1426C298.847 40.571 297.87 37.4867 297.87 33.8896C297.87 31.4157 298.318 29.137 299.213 27.0537C300.108 24.9541 301.402 23.3346 303.095 22.1953C304.804 21.056 306.806 20.4863 309.101 20.4863C312.16 20.4863 314.683 21.7233 316.669 24.1973V21.0723H320.722V43.4844C320.722 47.5208 320.307 50.3773 319.477 52.0537C318.663 53.7464 317.361 55.0811 315.57 56.0576C313.796 57.0342 311.607 57.5225 309.003 57.5225C305.91 57.5225 303.412 56.8226 301.508 55.4229C299.604 54.0394 298.684 51.9479 298.749 49.1484ZM302.387 33.5723C302.387 36.974 303.062 39.4561 304.413 41.0186C305.764 42.5811 307.457 43.3623 309.491 43.3623C311.509 43.3623 313.202 42.5892 314.569 41.043C315.937 39.4805 316.62 37.0391 316.62 33.7188C316.62 30.5449 315.912 28.1523 314.496 26.541C313.096 24.9297 311.404 24.124 309.418 24.124C307.465 24.124 305.805 24.9215 304.438 26.5166C303.07 28.0954 302.387 30.4473 302.387 33.5723ZM327.411 16.2627V11.209H331.806V16.2627H327.411ZM327.411 47V21.0723H331.806V47H327.411ZM348.114 43.0693L348.749 46.9512C347.512 47.2116 346.405 47.3418 345.429 47.3418C343.834 47.3418 342.597 47.0895 341.718 46.585C340.839 46.0804 340.22 45.4212 339.862 44.6074C339.504 43.7773 339.325 42.0439 339.325 39.4072V24.4902H336.103V21.0723H339.325V14.6514L343.695 12.0146V21.0723H348.114V24.4902H343.695V39.6514C343.695 40.9046 343.769 41.7103 343.915 42.0684C344.078 42.4264 344.33 42.7113 344.672 42.9229C345.03 43.1344 345.535 43.2402 346.186 43.2402C346.674 43.2402 347.317 43.1833 348.114 43.0693ZM369.354 43.8018C367.727 45.1852 366.156 46.1618 364.643 46.7314C363.145 47.3011 361.534 47.5859 359.809 47.5859C356.96 47.5859 354.771 46.8942 353.241 45.5107C351.711 44.111 350.946 42.3288 350.946 40.1641C350.946 38.8945 351.231 37.7389 351.801 36.6973C352.387 35.6393 353.144 34.793 354.071 34.1582C355.015 33.5234 356.073 33.0433 357.245 32.7178C358.108 32.4899 359.41 32.2702 361.151 32.0586C364.7 31.6354 367.312 31.1309 368.988 30.5449C369.005 29.9427 369.013 29.5602 369.013 29.3975C369.013 27.6071 368.598 26.3457 367.768 25.6133C366.645 24.6204 364.976 24.124 362.763 24.124C360.696 24.124 359.166 24.4902 358.173 25.2227C357.196 25.9388 356.472 27.2165 356 29.0557L351.703 28.4697C352.094 26.6305 352.737 25.1494 353.632 24.0264C354.527 22.887 355.821 22.0163 357.514 21.4141C359.206 20.7956 361.168 20.4863 363.397 20.4863C365.611 20.4863 367.41 20.7467 368.793 21.2676C370.176 21.7884 371.194 22.4476 371.845 23.2451C372.496 24.0264 372.951 25.0192 373.212 26.2236C373.358 26.9723 373.432 28.3232 373.432 30.2764V36.1357C373.432 40.221 373.521 42.8089 373.7 43.8994C373.896 44.9736 374.27 46.0072 374.823 47H370.233C369.778 46.0885 369.485 45.0225 369.354 43.8018ZM368.988 33.9873C367.393 34.6383 365.001 35.1917 361.811 35.6475C360.004 35.9079 358.726 36.2008 357.978 36.5264C357.229 36.8519 356.651 37.332 356.244 37.9668C355.837 38.5853 355.634 39.277 355.634 40.042C355.634 41.2139 356.073 42.1904 356.952 42.9717C357.847 43.7529 359.149 44.1436 360.858 44.1436C362.551 44.1436 364.057 43.7773 365.375 43.0449C366.693 42.2962 367.662 41.279 368.28 39.9932C368.752 39.0003 368.988 37.5355 368.988 35.5986V33.9873ZM380.17 47V11.209H384.564V47H380.17ZM399.164 47L412.909 11.209H418.012L432.66 47H427.265L423.09 36.1602H408.124L404.193 47H399.164ZM409.491 32.3027H421.625L417.89 22.3906C416.75 19.3796 415.904 16.9056 415.351 14.9688C414.895 17.2637 414.252 19.5423 413.422 21.8047L409.491 32.3027ZM435.834 47V21.0723H439.789V25.0029C440.798 23.1637 441.726 21.9512 442.572 21.3652C443.435 20.7793 444.379 20.4863 445.404 20.4863C446.885 20.4863 448.391 20.9583 449.921 21.9023L448.407 25.9795C447.333 25.3447 446.259 25.0273 445.185 25.0273C444.224 25.0273 443.362 25.3203 442.597 25.9062C441.832 26.4759 441.286 27.2734 440.961 28.2988C440.473 29.8613 440.229 31.5703 440.229 33.4258V47H435.834ZM469.452 37.5029L473.773 38.0645C473.301 41.043 472.089 43.3786 470.136 45.0713C468.199 46.7477 465.814 47.5859 462.982 47.5859C459.434 47.5859 456.578 46.4303 454.413 44.1191C452.265 41.7917 451.19 38.4632 451.19 34.1338C451.19 31.3343 451.654 28.8848 452.582 26.7852C453.51 24.6855 454.918 23.1149 456.806 22.0732C458.71 21.0153 460.777 20.4863 463.007 20.4863C465.823 20.4863 468.126 21.2025 469.916 22.6348C471.706 24.0508 472.854 26.069 473.358 28.6895L469.086 29.3486C468.679 27.6071 467.955 26.2969 466.913 25.418C465.888 24.5391 464.643 24.0996 463.178 24.0996C460.964 24.0996 459.166 24.8971 457.782 26.4922C456.399 28.071 455.707 30.5775 455.707 34.0117C455.707 37.4948 456.374 40.0257 457.709 41.6045C459.044 43.1833 460.785 43.9727 462.934 43.9727C464.659 43.9727 466.099 43.4437 467.255 42.3857C468.41 41.3278 469.143 39.7002 469.452 37.5029ZM477.533 47V11.209H481.928V24.0508C483.979 21.6745 486.566 20.4863 489.691 20.4863C491.612 20.4863 493.28 20.8688 494.696 21.6338C496.112 22.3825 497.121 23.4242 497.724 24.7588C498.342 26.0934 498.651 28.0303 498.651 30.5693V47H494.257V30.5693C494.257 28.3721 493.777 26.777 492.816 25.7842C491.872 24.7751 490.53 24.2705 488.788 24.2705C487.486 24.2705 486.257 24.6123 485.102 25.2959C483.962 25.9632 483.148 26.8747 482.66 28.0303C482.172 29.1859 481.928 30.7809 481.928 32.8154V47H477.533ZM505.39 16.2627V11.209H509.784V16.2627H505.39ZM505.39 47V21.0723H509.784V47H505.39ZM523.7 47L513.837 21.0723H518.476L524.042 36.5996C524.644 38.276 525.198 40.0176 525.702 41.8242C526.093 40.457 526.638 38.8132 527.338 36.8926L533.1 21.0723H537.616L527.802 47H523.7ZM559.247 38.6504L563.788 39.2119C563.072 41.8649 561.745 43.9238 559.809 45.3887C557.872 46.8535 555.398 47.5859 552.387 47.5859C548.594 47.5859 545.583 46.4222 543.354 44.0947C541.14 41.751 540.033 38.4714 540.033 34.2559C540.033 29.8939 541.156 26.5085 543.402 24.0996C545.648 21.6908 548.562 20.4863 552.143 20.4863C555.609 20.4863 558.441 21.6663 560.639 24.0264C562.836 26.3864 563.935 29.7067 563.935 33.9873C563.935 34.2477 563.926 34.6383 563.91 35.1592H544.574C544.737 38.0075 545.543 40.1885 546.991 41.7021C548.44 43.2158 550.246 43.9727 552.411 43.9727C554.022 43.9727 555.398 43.5495 556.537 42.7031C557.676 41.8568 558.58 40.5059 559.247 38.6504ZM544.818 31.5459H559.296C559.101 29.3649 558.547 27.7292 557.636 26.6387C556.236 24.946 554.421 24.0996 552.191 24.0996C550.173 24.0996 548.472 24.7751 547.089 26.126C545.722 27.4769 544.965 29.2835 544.818 31.5459Z" fill="black"/>
<path d="M156.938 93V74.0596H149.862V71.5254H166.884V74.0596H159.779V93H156.938ZM169.477 93V71.5254H172.113V79.2305C173.344 77.8047 174.896 77.0918 176.771 77.0918C177.924 77.0918 178.925 77.3213 179.774 77.7803C180.624 78.2295 181.229 78.8545 181.591 79.6553C181.962 80.4561 182.147 81.6182 182.147 83.1416V93H179.511V83.1416C179.511 81.8232 179.223 80.8662 178.646 80.2705C178.08 79.665 177.274 79.3623 176.229 79.3623C175.448 79.3623 174.711 79.5674 174.018 79.9775C173.334 80.3779 172.846 80.9248 172.553 81.6182C172.26 82.3115 172.113 83.2686 172.113 84.4893V93H169.477ZM196.825 87.9902L199.55 88.3271C199.12 89.9189 198.324 91.1543 197.162 92.0332C196 92.9121 194.516 93.3516 192.709 93.3516C190.434 93.3516 188.627 92.6533 187.289 91.2568C185.961 89.8506 185.297 87.8828 185.297 85.3535C185.297 82.7363 185.971 80.7051 187.318 79.2598C188.666 77.8145 190.414 77.0918 192.562 77.0918C194.643 77.0918 196.342 77.7998 197.66 79.2158C198.979 80.6318 199.638 82.624 199.638 85.1924C199.638 85.3486 199.633 85.583 199.623 85.8955H188.021C188.119 87.6045 188.603 88.9131 189.472 89.8213C190.341 90.7295 191.425 91.1836 192.724 91.1836C193.69 91.1836 194.516 90.9297 195.199 90.4219C195.883 89.9141 196.425 89.1035 196.825 87.9902ZM188.168 83.7275H196.854C196.737 82.4189 196.405 81.4375 195.858 80.7832C195.019 79.7676 193.93 79.2598 192.592 79.2598C191.381 79.2598 190.36 79.665 189.53 80.4756C188.71 81.2861 188.256 82.3701 188.168 83.7275ZM211.605 93V71.5254H221.127C223.041 71.5254 224.496 71.7207 225.492 72.1113C226.488 72.4922 227.284 73.1709 227.88 74.1475C228.476 75.124 228.773 76.2031 228.773 77.3848C228.773 78.9082 228.28 80.1924 227.294 81.2373C226.308 82.2822 224.784 82.9463 222.724 83.2295C223.476 83.5908 224.047 83.9473 224.438 84.2988C225.268 85.0605 226.054 86.0127 226.796 87.1553L230.531 93H226.957L224.115 88.5322C223.285 87.2432 222.602 86.2568 222.064 85.5732C221.527 84.8896 221.044 84.4111 220.614 84.1377C220.194 83.8643 219.765 83.6738 219.325 83.5664C219.003 83.498 218.476 83.4639 217.743 83.4639H214.447V93H211.605ZM214.447 81.0029H220.556C221.854 81.0029 222.87 80.8711 223.603 80.6074C224.335 80.334 224.892 79.9043 225.272 79.3184C225.653 78.7227 225.844 78.0781 225.844 77.3848C225.844 76.3691 225.473 75.5342 224.73 74.8799C223.998 74.2256 222.836 73.8984 221.244 73.8984H214.447V81.0029ZM243.554 87.9902L246.278 88.3271C245.849 89.9189 245.053 91.1543 243.891 92.0332C242.729 92.9121 241.244 93.3516 239.438 93.3516C237.162 93.3516 235.355 92.6533 234.018 91.2568C232.689 89.8506 232.025 87.8828 232.025 85.3535C232.025 82.7363 232.699 80.7051 234.047 79.2598C235.395 77.8145 237.143 77.0918 239.291 77.0918C241.371 77.0918 243.07 77.7998 244.389 79.2158C245.707 80.6318 246.366 82.624 246.366 85.1924C246.366 85.3486 246.361 85.583 246.352 85.8955H234.75C234.848 87.6045 235.331 88.9131 236.2 89.8213C237.069 90.7295 238.153 91.1836 239.452 91.1836C240.419 91.1836 241.244 90.9297 241.928 90.4219C242.611 89.9141 243.153 89.1035 243.554 87.9902ZM234.896 83.7275H243.583C243.466 82.4189 243.134 81.4375 242.587 80.7832C241.747 79.7676 240.658 79.2598 239.32 79.2598C238.109 79.2598 237.089 79.665 236.259 80.4756C235.438 81.2861 234.984 82.3701 234.896 83.7275ZM248.549 88.3564L251.156 87.9463C251.303 88.9912 251.708 89.792 252.372 90.3486C253.046 90.9053 253.983 91.1836 255.185 91.1836C256.396 91.1836 257.294 90.9395 257.88 90.4512C258.466 89.9531 258.759 89.3721 258.759 88.708C258.759 88.1123 258.5 87.6436 257.982 87.3018C257.621 87.0674 256.723 86.7695 255.287 86.4082C253.354 85.9199 252.011 85.5 251.259 85.1484C250.517 84.7871 249.95 84.2939 249.56 83.6689C249.179 83.0342 248.988 82.3359 248.988 81.5742C248.988 80.8809 249.145 80.2412 249.457 79.6553C249.779 79.0596 250.214 78.5664 250.761 78.1758C251.171 77.873 251.728 77.6191 252.431 77.4141C253.144 77.1992 253.905 77.0918 254.716 77.0918C255.937 77.0918 257.006 77.2676 257.924 77.6191C258.852 77.9707 259.535 78.4492 259.975 79.0547C260.414 79.6504 260.717 80.4512 260.883 81.457L258.305 81.8086C258.188 81.0078 257.846 80.3828 257.279 79.9336C256.723 79.4844 255.932 79.2598 254.906 79.2598C253.695 79.2598 252.831 79.46 252.313 79.8604C251.796 80.2607 251.537 80.7295 251.537 81.2666C251.537 81.6084 251.645 81.916 251.859 82.1895C252.074 82.4727 252.411 82.707 252.87 82.8926C253.134 82.9902 253.91 83.2148 255.199 83.5664C257.064 84.0645 258.363 84.4746 259.096 84.7969C259.838 85.1094 260.419 85.5684 260.839 86.1738C261.259 86.7793 261.469 87.5312 261.469 88.4297C261.469 89.3086 261.21 90.1387 260.692 90.9199C260.185 91.6914 259.447 92.292 258.48 92.7217C257.514 93.1416 256.42 93.3516 255.199 93.3516C253.178 93.3516 251.635 92.9316 250.57 92.0918C249.516 91.252 248.842 90.0068 248.549 88.3564ZM275.253 87.9902L277.978 88.3271C277.548 89.9189 276.752 91.1543 275.59 92.0332C274.428 92.9121 272.943 93.3516 271.137 93.3516C268.861 93.3516 267.055 92.6533 265.717 91.2568C264.389 89.8506 263.725 87.8828 263.725 85.3535C263.725 82.7363 264.398 80.7051 265.746 79.2598C267.094 77.8145 268.842 77.0918 270.99 77.0918C273.07 77.0918 274.77 77.7998 276.088 79.2158C277.406 80.6318 278.065 82.624 278.065 85.1924C278.065 85.3486 278.061 85.583 278.051 85.8955H266.449C266.547 87.6045 267.03 88.9131 267.899 89.8213C268.769 90.7295 269.853 91.1836 271.151 91.1836C272.118 91.1836 272.943 90.9297 273.627 90.4219C274.311 89.9141 274.853 89.1035 275.253 87.9902ZM266.596 83.7275H275.282C275.165 82.4189 274.833 81.4375 274.286 80.7832C273.446 79.7676 272.357 79.2598 271.02 79.2598C269.809 79.2598 268.788 79.665 267.958 80.4756C267.138 81.2861 266.684 82.3701 266.596 83.7275ZM291.454 91.0811C290.478 91.9111 289.535 92.4971 288.627 92.8389C287.729 93.1807 286.762 93.3516 285.727 93.3516C284.018 93.3516 282.704 92.9365 281.786 92.1064C280.868 91.2666 280.409 90.1973 280.409 88.8984C280.409 88.1367 280.58 87.4434 280.922 86.8184C281.273 86.1836 281.728 85.6758 282.284 85.2949C282.851 84.9141 283.485 84.626 284.188 84.4307C284.706 84.2939 285.487 84.1621 286.532 84.0352C288.661 83.7812 290.229 83.4785 291.234 83.127C291.244 82.7656 291.249 82.5361 291.249 82.4385C291.249 81.3643 291 80.6074 290.502 80.168C289.828 79.5723 288.827 79.2744 287.499 79.2744C286.259 79.2744 285.341 79.4941 284.745 79.9336C284.159 80.3633 283.725 81.1299 283.441 82.2334L280.863 81.8818C281.098 80.7783 281.483 79.8896 282.021 79.2158C282.558 78.5322 283.334 78.0098 284.35 77.6484C285.365 77.2773 286.542 77.0918 287.88 77.0918C289.208 77.0918 290.287 77.248 291.117 77.5605C291.947 77.873 292.558 78.2686 292.948 78.7471C293.339 79.2158 293.612 79.8115 293.769 80.5342C293.856 80.9834 293.9 81.7939 293.9 82.9658V86.4814C293.9 88.9326 293.954 90.4854 294.062 91.1396C294.179 91.7842 294.403 92.4043 294.735 93H291.981C291.708 92.4531 291.532 91.8135 291.454 91.0811ZM291.234 85.1924C290.277 85.583 288.842 85.915 286.928 86.1885C285.844 86.3447 285.077 86.5205 284.628 86.7158C284.179 86.9111 283.832 87.1992 283.588 87.5801C283.344 87.9512 283.222 88.3662 283.222 88.8252C283.222 89.5283 283.485 90.1143 284.013 90.583C284.55 91.0518 285.331 91.2861 286.356 91.2861C287.372 91.2861 288.275 91.0664 289.066 90.627C289.857 90.1777 290.438 89.5674 290.81 88.7959C291.093 88.2002 291.234 87.3213 291.234 86.1592V85.1924ZM297.973 93V77.4434H300.346V79.8018C300.951 78.6982 301.508 77.9707 302.016 77.6191C302.533 77.2676 303.1 77.0918 303.715 77.0918C304.604 77.0918 305.507 77.375 306.425 77.9414L305.517 80.3877C304.872 80.0068 304.228 79.8164 303.583 79.8164C303.007 79.8164 302.489 79.9922 302.03 80.3438C301.571 80.6855 301.244 81.1641 301.049 81.7793C300.756 82.7168 300.609 83.7422 300.609 84.8555V93H297.973ZM318.144 87.3018L320.736 87.6387C320.453 89.4258 319.726 90.8271 318.554 91.8428C317.392 92.8486 315.961 93.3516 314.262 93.3516C312.133 93.3516 310.419 92.6582 309.12 91.2715C307.831 89.875 307.187 87.8779 307.187 85.2803C307.187 83.6006 307.465 82.1309 308.021 80.8711C308.578 79.6113 309.423 78.6689 310.556 78.0439C311.698 77.4092 312.938 77.0918 314.276 77.0918C315.966 77.0918 317.348 77.5215 318.422 78.3809C319.496 79.2305 320.185 80.4414 320.487 82.0137L317.924 82.4092C317.68 81.3643 317.245 80.5781 316.62 80.0508C316.005 79.5234 315.258 79.2598 314.379 79.2598C313.051 79.2598 311.972 79.7383 311.142 80.6953C310.312 81.6426 309.896 83.1465 309.896 85.207C309.896 87.2969 310.297 88.8154 311.098 89.7627C311.898 90.71 312.943 91.1836 314.232 91.1836C315.268 91.1836 316.132 90.8662 316.825 90.2314C317.519 89.5967 317.958 88.6201 318.144 87.3018ZM322.992 93V71.5254H325.629V79.2305C326.859 77.8047 328.412 77.0918 330.287 77.0918C331.439 77.0918 332.44 77.3213 333.29 77.7803C334.14 78.2295 334.745 78.8545 335.106 79.6553C335.478 80.4561 335.663 81.6182 335.663 83.1416V93H333.026V83.1416C333.026 81.8232 332.738 80.8662 332.162 80.2705C331.596 79.665 330.79 79.3623 329.745 79.3623C328.964 79.3623 328.227 79.5674 327.533 79.9775C326.85 80.3779 326.361 80.9248 326.068 81.6182C325.775 82.3115 325.629 83.2686 325.629 84.4893V93H322.992ZM348.012 93V77.4434H350.385V79.8018C350.99 78.6982 351.547 77.9707 352.055 77.6191C352.572 77.2676 353.139 77.0918 353.754 77.0918C354.643 77.0918 355.546 77.375 356.464 77.9414L355.556 80.3877C354.911 80.0068 354.267 79.8164 353.622 79.8164C353.046 79.8164 352.528 79.9922 352.069 80.3438C351.61 80.6855 351.283 81.1641 351.088 81.7793C350.795 82.7168 350.648 83.7422 350.648 84.8555V93H348.012ZM368.681 87.9902L371.405 88.3271C370.976 89.9189 370.18 91.1543 369.018 92.0332C367.855 92.9121 366.371 93.3516 364.564 93.3516C362.289 93.3516 360.482 92.6533 359.145 91.2568C357.816 89.8506 357.152 87.8828 357.152 85.3535C357.152 82.7363 357.826 80.7051 359.174 79.2598C360.521 77.8145 362.27 77.0918 364.418 77.0918C366.498 77.0918 368.197 77.7998 369.516 79.2158C370.834 80.6318 371.493 82.624 371.493 85.1924C371.493 85.3486 371.488 85.583 371.479 85.8955H359.877C359.975 87.6045 360.458 88.9131 361.327 89.8213C362.196 90.7295 363.28 91.1836 364.579 91.1836C365.546 91.1836 366.371 90.9297 367.055 90.4219C367.738 89.9141 368.28 89.1035 368.681 87.9902ZM360.023 83.7275H368.71C368.593 82.4189 368.261 81.4375 367.714 80.7832C366.874 79.7676 365.785 79.2598 364.447 79.2598C363.236 79.2598 362.216 79.665 361.386 80.4756C360.565 81.2861 360.111 82.3701 360.023 83.7275ZM373.676 88.3564L376.283 87.9463C376.43 88.9912 376.835 89.792 377.499 90.3486C378.173 90.9053 379.11 91.1836 380.312 91.1836C381.522 91.1836 382.421 90.9395 383.007 90.4512C383.593 89.9531 383.886 89.3721 383.886 88.708C383.886 88.1123 383.627 87.6436 383.109 87.3018C382.748 87.0674 381.85 86.7695 380.414 86.4082C378.48 85.9199 377.138 85.5 376.386 85.1484C375.644 84.7871 375.077 84.2939 374.687 83.6689C374.306 83.0342 374.115 82.3359 374.115 81.5742C374.115 80.8809 374.271 80.2412 374.584 79.6553C374.906 79.0596 375.341 78.5664 375.888 78.1758C376.298 77.873 376.854 77.6191 377.558 77.4141C378.271 77.1992 379.032 77.0918 379.843 77.0918C381.063 77.0918 382.133 77.2676 383.051 77.6191C383.979 77.9707 384.662 78.4492 385.102 79.0547C385.541 79.6504 385.844 80.4512 386.01 81.457L383.432 81.8086C383.314 81.0078 382.973 80.3828 382.406 79.9336C381.85 79.4844 381.059 79.2598 380.033 79.2598C378.822 79.2598 377.958 79.46 377.44 79.8604C376.923 80.2607 376.664 80.7295 376.664 81.2666C376.664 81.6084 376.771 81.916 376.986 82.1895C377.201 82.4727 377.538 82.707 377.997 82.8926C378.261 82.9902 379.037 83.2148 380.326 83.5664C382.191 84.0645 383.49 84.4746 384.223 84.7969C384.965 85.1094 385.546 85.5684 385.966 86.1738C386.386 86.7793 386.596 87.5312 386.596 88.4297C386.596 89.3086 386.337 90.1387 385.819 90.9199C385.312 91.6914 384.574 92.292 383.607 92.7217C382.641 93.1416 381.547 93.3516 380.326 93.3516C378.305 93.3516 376.762 92.9316 375.697 92.0918C374.643 91.252 373.969 90.0068 373.676 88.3564ZM388.749 85.2217C388.749 82.3408 389.55 80.207 391.151 78.8203C392.489 77.668 394.12 77.0918 396.044 77.0918C398.183 77.0918 399.931 77.7949 401.288 79.2012C402.646 80.5977 403.324 82.5312 403.324 85.002C403.324 87.0039 403.021 88.5811 402.416 89.7334C401.82 90.876 400.946 91.7646 399.794 92.3994C398.651 93.0342 397.401 93.3516 396.044 93.3516C393.866 93.3516 392.104 92.6533 390.756 91.2568C389.418 89.8604 388.749 87.8486 388.749 85.2217ZM391.459 85.2217C391.459 87.2139 391.894 88.708 392.763 89.7041C393.632 90.6904 394.726 91.1836 396.044 91.1836C397.353 91.1836 398.441 90.6855 399.311 89.6895C400.18 88.6934 400.614 87.1748 400.614 85.1338C400.614 83.21 400.175 81.7549 399.296 80.7686C398.427 79.7725 397.343 79.2744 396.044 79.2744C394.726 79.2744 393.632 79.7676 392.763 80.7539C391.894 81.7402 391.459 83.2295 391.459 85.2217ZM416.625 93V90.7148C415.414 92.4727 413.769 93.3516 411.688 93.3516C410.771 93.3516 409.911 93.1758 409.11 92.8242C408.319 92.4727 407.729 92.0332 407.338 91.5059C406.957 90.9688 406.688 90.3145 406.532 89.543C406.425 89.0254 406.371 88.2051 406.371 87.082V77.4434H409.008V86.0713C409.008 87.4482 409.062 88.376 409.169 88.8545C409.335 89.5479 409.687 90.0947 410.224 90.4951C410.761 90.8857 411.425 91.0811 412.216 91.0811C413.007 91.0811 413.749 90.8809 414.442 90.4805C415.136 90.0703 415.624 89.5186 415.907 88.8252C416.2 88.1221 416.347 87.1064 416.347 85.7783V77.4434H418.983V93H416.625ZM423.1 93V77.4434H425.473V79.8018C426.078 78.6982 426.635 77.9707 427.143 77.6191C427.66 77.2676 428.227 77.0918 428.842 77.0918C429.73 77.0918 430.634 77.375 431.552 77.9414L430.644 80.3877C429.999 80.0068 429.354 79.8164 428.71 79.8164C428.134 79.8164 427.616 79.9922 427.157 80.3438C426.698 80.6855 426.371 81.1641 426.176 81.7793C425.883 82.7168 425.736 83.7422 425.736 84.8555V93H423.1ZM443.271 87.3018L445.863 87.6387C445.58 89.4258 444.853 90.8271 443.681 91.8428C442.519 92.8486 441.088 93.3516 439.389 93.3516C437.26 93.3516 435.546 92.6582 434.247 91.2715C432.958 89.875 432.313 87.8779 432.313 85.2803C432.313 83.6006 432.592 82.1309 433.148 80.8711C433.705 79.6113 434.55 78.6689 435.683 78.0439C436.825 77.4092 438.065 77.0918 439.403 77.0918C441.093 77.0918 442.475 77.5215 443.549 78.3809C444.623 79.2305 445.312 80.4414 445.614 82.0137L443.051 82.4092C442.807 81.3643 442.372 80.5781 441.747 80.0508C441.132 79.5234 440.385 79.2598 439.506 79.2598C438.178 79.2598 437.099 79.7383 436.269 80.6953C435.438 81.6426 435.023 83.1465 435.023 85.207C435.023 87.2969 435.424 88.8154 436.225 89.7627C437.025 90.71 438.07 91.1836 439.359 91.1836C440.395 91.1836 441.259 90.8662 441.952 90.2314C442.646 89.5967 443.085 88.6201 443.271 87.3018ZM458.769 87.9902L461.493 88.3271C461.063 89.9189 460.268 91.1543 459.105 92.0332C457.943 92.9121 456.459 93.3516 454.652 93.3516C452.377 93.3516 450.57 92.6533 449.232 91.2568C447.904 89.8506 447.24 87.8828 447.24 85.3535C447.24 82.7363 447.914 80.7051 449.262 79.2598C450.609 77.8145 452.357 77.0918 454.506 77.0918C456.586 77.0918 458.285 77.7998 459.604 79.2158C460.922 80.6318 461.581 82.624 461.581 85.1924C461.581 85.3486 461.576 85.583 461.566 85.8955H449.965C450.062 87.6045 450.546 88.9131 451.415 89.8213C452.284 90.7295 453.368 91.1836 454.667 91.1836C455.634 91.1836 456.459 90.9297 457.143 90.4219C457.826 89.9141 458.368 89.1035 458.769 87.9902ZM450.111 83.7275H458.798C458.681 82.4189 458.349 81.4375 457.802 80.7832C456.962 79.7676 455.873 79.2598 454.535 79.2598C453.324 79.2598 452.304 79.665 451.474 80.4756C450.653 81.2861 450.199 82.3701 450.111 83.7275Z" fill="black"/>
</svg>
