<svg width="361" height="361" viewBox="0 0 361 361" fill="none" xmlns="http://www.w3.org/2000/svg">
<circle cx="180.5" cy="180.5" r="180.5" fill="#111111"/>
<path d="M219.47 144.96C216.25 141.04 212.26 138.03 207.5 135.93C202.88 133.83 197.49 132.78 191.33 132.78C185.17 132.78 179.43 133.97 174.11 136.35C168.93 138.73 164.38 142.09 160.46 146.43C156.68 150.63 153.67 155.67 151.43 161.55C149.33 167.43 148.28 173.8 148.28 180.66C148.28 187.66 149.33 194.1 151.43 199.98C153.67 205.72 156.68 210.76 160.46 215.1C164.24 219.3 168.65 222.59 173.69 224.97C178.87 227.35 184.4 228.54 190.28 228.54C197 228.54 202.95 227.14 208.13 224.34C213.31 221.54 217.58 217.62 220.94 212.58L248.24 232.95C241.94 241.77 233.96 248.28 224.3 252.48C214.64 256.68 204.7 258.78 194.48 258.78C182.86 258.78 172.15 256.96 162.35 253.32C152.55 249.68 144.08 244.5 136.94 237.78C129.8 230.92 124.2 222.66 120.14 213C116.22 203.34 114.26 192.56 114.26 180.66C114.26 168.76 116.22 157.98 120.14 148.32C124.2 138.66 129.8 130.47 136.94 123.75C144.08 116.89 152.55 111.64 162.35 108C172.15 104.36 182.86 102.54 194.48 102.54C198.68 102.54 203.02 102.96 207.5 103.8C212.12 104.5 216.6 105.69 220.94 107.37C225.42 109.05 229.69 111.29 233.75 114.09C237.81 116.89 241.45 120.32 244.67 124.38L219.47 144.96Z" fill="#F8CC46"/>
</svg>
